<mxfile host="app.diagrams.net" modified="2023-09-07T11:07:32.953Z" agent="Mozilla/5.0 (X11; Linux x86_64) AppleWebKit/537.36 (KHTML, like Gecko) Chrome/116.0.0.0 Safari/537.36" version="21.6.6" etag="8DZECCeqsfKuOIt7nlzX" type="github">
  <diagram name="第 1 页" id="MzmoWuUz1i-0o9no415G">
    <mxGraphModel>
      <root>
        <mxCell id="0" />
        <mxCell id="1" parent="0" />
      </root>
    </mxGraphModel>
  </diagram>
</mxfile>
